<mxfile host="app.diagrams.net" modified="2024-01-16T17:49:32.012Z" agent="Mozilla/5.0 (X11; Linux x86_64; rv:121.0) Gecko/20100101 Firefox/121.0" etag="xW61kHGB21xR5JuNUiEq" version="22.1.18" type="device">
  <diagram id="bMepcJKHhawCyAvMjVsu" name="v2">
    <mxGraphModel dx="3607" dy="1188" grid="1" gridSize="10" guides="1" tooltips="1" connect="1" arrows="1" fold="1" page="1" pageScale="1" pageWidth="850" pageHeight="1100" math="0" shadow="0">
      <root>
        <mxCell id="0" />
        <mxCell id="1" parent="0" />
        <mxCell id="xGJjlxiRfiB6k2hYQBMe-21" style="edgeStyle=orthogonalEdgeStyle;rounded=0;orthogonalLoop=1;jettySize=auto;html=1;exitX=1;exitY=0.5;exitDx=0;exitDy=0;entryX=0;entryY=0.5;entryDx=0;entryDy=0;endSize=15;endArrow=block;endFill=1;" parent="1" source="xGJjlxiRfiB6k2hYQBMe-2" target="xGJjlxiRfiB6k2hYQBMe-10" edge="1">
          <mxGeometry relative="1" as="geometry" />
        </mxCell>
        <mxCell id="J9VCgambrHtC4VQbxY_9-2" style="edgeStyle=orthogonalEdgeStyle;rounded=0;orthogonalLoop=1;jettySize=auto;html=1;exitX=0.5;exitY=0;exitDx=0;exitDy=0;entryX=0;entryY=0.5;entryDx=0;entryDy=0;endSize=15;endArrow=open;endFill=0;" parent="1" source="xGJjlxiRfiB6k2hYQBMe-2" target="xGJjlxiRfiB6k2hYQBMe-7" edge="1">
          <mxGeometry relative="1" as="geometry">
            <Array as="points">
              <mxPoint x="-1040" y="331.25" />
            </Array>
          </mxGeometry>
        </mxCell>
        <mxCell id="xGJjlxiRfiB6k2hYQBMe-2" value="&lt;p&gt;&amp;lt;&amp;lt;block&amp;gt;&amp;gt;&lt;br&gt;&lt;b&gt;Sensorfusion&lt;/b&gt;&lt;br&gt;&lt;/p&gt;" style="shape=rect;html=1;overflow=fill;whiteSpace=wrap;align=center;" parent="1" vertex="1">
          <mxGeometry x="-1120" y="400.25" width="160" height="50" as="geometry" />
        </mxCell>
        <mxCell id="J9VCgambrHtC4VQbxY_9-14" style="edgeStyle=orthogonalEdgeStyle;rounded=0;orthogonalLoop=1;jettySize=auto;html=1;exitX=0.5;exitY=0;exitDx=0;exitDy=0;endArrow=none;endFill=0;" parent="1" source="xGJjlxiRfiB6k2hYQBMe-3" edge="1">
          <mxGeometry relative="1" as="geometry">
            <mxPoint x="-1290" y="450.25" as="targetPoint" />
            <Array as="points">
              <mxPoint x="-1180" y="520.25" />
              <mxPoint x="-1290" y="520.25" />
            </Array>
          </mxGeometry>
        </mxCell>
        <mxCell id="xGJjlxiRfiB6k2hYQBMe-3" value="&lt;p&gt;&amp;lt;&amp;lt;block&amp;gt;&amp;gt;&lt;br&gt;&lt;b&gt;Selbstwahrnehmung&lt;/b&gt;&lt;/p&gt;&lt;p&gt;&lt;b&gt;{abstract}&lt;/b&gt;&lt;/p&gt;" style="shape=rect;html=1;overflow=fill;whiteSpace=wrap;align=center;" parent="1" vertex="1">
          <mxGeometry x="-1260" y="560.25" width="160" height="50" as="geometry" />
        </mxCell>
        <mxCell id="xGJjlxiRfiB6k2hYQBMe-4" value="&lt;p&gt;&amp;lt;&amp;lt;block&amp;gt;&amp;gt;&lt;br&gt;&lt;b&gt;Umfeldwahrnehmung&lt;/b&gt;&lt;/p&gt;" style="shape=rect;html=1;overflow=fill;whiteSpace=wrap;align=center;" parent="1" vertex="1">
          <mxGeometry x="-1470" y="560.25" width="160" height="50" as="geometry" />
        </mxCell>
        <mxCell id="J9VCgambrHtC4VQbxY_9-15" style="edgeStyle=orthogonalEdgeStyle;rounded=0;orthogonalLoop=1;jettySize=auto;html=1;exitX=0.5;exitY=0;exitDx=0;exitDy=0;entryX=0.5;entryY=1;entryDx=0;entryDy=0;endSize=15;" parent="1" source="xGJjlxiRfiB6k2hYQBMe-5" target="xGJjlxiRfiB6k2hYQBMe-4" edge="1">
          <mxGeometry relative="1" as="geometry">
            <Array as="points">
              <mxPoint x="-1390" y="630.25" />
              <mxPoint x="-1390" y="630.25" />
            </Array>
          </mxGeometry>
        </mxCell>
        <mxCell id="xGJjlxiRfiB6k2hYQBMe-5" value="&lt;p&gt;&amp;lt;&amp;lt;block&amp;gt;&amp;gt;&lt;br&gt;&lt;b&gt;Ultraschall&lt;/b&gt;&lt;/p&gt;" style="shape=rect;html=1;overflow=fill;whiteSpace=wrap;align=center;" parent="1" vertex="1">
          <mxGeometry x="-1470" y="700.25" width="160" height="50" as="geometry" />
        </mxCell>
        <mxCell id="xGJjlxiRfiB6k2hYQBMe-9" style="edgeStyle=orthogonalEdgeStyle;rounded=0;orthogonalLoop=1;jettySize=auto;html=1;exitX=1;exitY=0.5;exitDx=0;exitDy=0;entryX=0;entryY=0.5;entryDx=0;entryDy=0;endSize=15;" parent="1" source="xGJjlxiRfiB6k2hYQBMe-6" target="xGJjlxiRfiB6k2hYQBMe-2" edge="1">
          <mxGeometry relative="1" as="geometry" />
        </mxCell>
        <mxCell id="xGJjlxiRfiB6k2hYQBMe-6" value="&lt;p&gt;&amp;lt;&amp;lt;block&amp;gt;&amp;gt;&lt;br&gt;&lt;b&gt;Sensorik&lt;/b&gt;&lt;/p&gt;" style="shape=rect;html=1;overflow=fill;whiteSpace=wrap;align=center;" parent="1" vertex="1">
          <mxGeometry x="-1370" y="400.25" width="160" height="50" as="geometry" />
        </mxCell>
        <mxCell id="J9VCgambrHtC4VQbxY_9-41" style="edgeStyle=orthogonalEdgeStyle;rounded=0;orthogonalLoop=1;jettySize=auto;html=1;exitX=1;exitY=0.5;exitDx=0;exitDy=0;endSize=15;endArrow=block;endFill=1;" parent="1" source="xGJjlxiRfiB6k2hYQBMe-7" target="xGJjlxiRfiB6k2hYQBMe-13" edge="1">
          <mxGeometry relative="1" as="geometry" />
        </mxCell>
        <mxCell id="J9VCgambrHtC4VQbxY_9-57" style="edgeStyle=orthogonalEdgeStyle;rounded=0;orthogonalLoop=1;jettySize=auto;html=1;exitX=0.5;exitY=0;exitDx=0;exitDy=0;entryX=0.5;entryY=1;entryDx=0;entryDy=0;endSize=15;endArrow=open;endFill=0;" parent="1" source="xGJjlxiRfiB6k2hYQBMe-7" target="xGJjlxiRfiB6k2hYQBMe-28" edge="1">
          <mxGeometry relative="1" as="geometry" />
        </mxCell>
        <mxCell id="xGJjlxiRfiB6k2hYQBMe-7" value="&lt;p&gt;&amp;lt;&amp;lt;block&amp;gt;&amp;gt;&lt;br&gt;&lt;b&gt;Karte&lt;/b&gt;&lt;br&gt;&lt;/p&gt;" style="shape=rect;html=1;overflow=fill;whiteSpace=wrap;align=center;" parent="1" vertex="1">
          <mxGeometry x="-870" y="306.25" width="160" height="50" as="geometry" />
        </mxCell>
        <mxCell id="xGJjlxiRfiB6k2hYQBMe-10" value="&lt;p&gt;&amp;lt;&amp;lt;block&amp;gt;&amp;gt;&lt;br&gt;&lt;b&gt;Objekterkennung&lt;/b&gt;&lt;br&gt;&lt;/p&gt;" style="shape=rect;html=1;overflow=fill;whiteSpace=wrap;align=center;" parent="1" vertex="1">
          <mxGeometry x="-870" y="400.25" width="160" height="50" as="geometry" />
        </mxCell>
        <mxCell id="xGJjlxiRfiB6k2hYQBMe-17" style="edgeStyle=orthogonalEdgeStyle;rounded=0;orthogonalLoop=1;jettySize=auto;html=1;exitX=1;exitY=0.5;exitDx=0;exitDy=0;entryX=0;entryY=0.5;entryDx=0;entryDy=0;endSize=15;endArrow=block;endFill=1;" parent="1" source="xGJjlxiRfiB6k2hYQBMe-13" target="xGJjlxiRfiB6k2hYQBMe-15" edge="1">
          <mxGeometry relative="1" as="geometry">
            <Array as="points">
              <mxPoint x="-440" y="425.25" />
            </Array>
          </mxGeometry>
        </mxCell>
        <mxCell id="J9VCgambrHtC4VQbxY_9-50" style="edgeStyle=orthogonalEdgeStyle;rounded=0;orthogonalLoop=1;jettySize=auto;html=1;exitX=0.75;exitY=0;exitDx=0;exitDy=0;entryX=0.5;entryY=1;entryDx=0;entryDy=0;" parent="1" source="xGJjlxiRfiB6k2hYQBMe-13" target="J9VCgambrHtC4VQbxY_9-42" edge="1">
          <mxGeometry relative="1" as="geometry">
            <Array as="points">
              <mxPoint x="-480" y="120.25" />
              <mxPoint x="-520" y="120.25" />
            </Array>
          </mxGeometry>
        </mxCell>
        <mxCell id="xGJjlxiRfiB6k2hYQBMe-13" value="&lt;p style=&quot;margin:0px;margin-top:4px;text-align:center;&quot;&gt;&amp;lt;&amp;lt;block&amp;gt;&amp;gt;&lt;br&gt;&lt;b&gt;Planung&lt;/b&gt;&lt;br&gt;&lt;/p&gt;&lt;hr&gt;&lt;p style=&quot;font-size:10px;margin:0px;text-align:center;&quot;&gt;&lt;i&gt;parts&lt;/i&gt;&lt;/p&gt;&lt;p style=&quot;margin:0px;margin-left:8px;text-align:left;&quot;&gt;&amp;nbsp;: Routenplanung&lt;/p&gt;&lt;p style=&quot;margin:0px;margin-left:8px;text-align:left;&quot;&gt;&amp;nbsp;: Verhaltensplanung&lt;br&gt;&lt;/p&gt;&lt;p style=&quot;margin:0px;margin-left:8px;text-align:left;&quot;&gt;&amp;nbsp;: Pfadfindung&lt;/p&gt;&lt;p style=&quot;margin:0px;margin-left:8px;text-align:left;&quot;&gt;&amp;nbsp;: Trajektorienplanung&lt;br&gt;&lt;/p&gt;&lt;p style=&quot;margin:0px;margin-left:8px;text-align:left;&quot;&gt;&lt;br&gt;&lt;/p&gt;&lt;p style=&quot;margin:0px;margin-left:8px;text-align:left;&quot;&gt;&lt;br&gt;&lt;/p&gt;" style="shape=rect;html=1;overflow=fill;verticalAlign=top;align=left;whiteSpace=wrap;" parent="1" vertex="1">
          <mxGeometry x="-600" y="329.75" width="160" height="120.5" as="geometry" />
        </mxCell>
        <mxCell id="J9VCgambrHtC4VQbxY_9-30" style="edgeStyle=orthogonalEdgeStyle;rounded=0;orthogonalLoop=1;jettySize=auto;html=1;exitX=1;exitY=0.5;exitDx=0;exitDy=0;entryX=0;entryY=0.5;entryDx=0;entryDy=0;endSize=15;endArrow=block;endFill=1;" parent="1" source="xGJjlxiRfiB6k2hYQBMe-15" target="xGJjlxiRfiB6k2hYQBMe-16" edge="1">
          <mxGeometry relative="1" as="geometry" />
        </mxCell>
        <mxCell id="J9VCgambrHtC4VQbxY_9-49" style="edgeStyle=orthogonalEdgeStyle;rounded=0;orthogonalLoop=1;jettySize=auto;html=1;exitX=0.5;exitY=0;exitDx=0;exitDy=0;entryX=0.5;entryY=1;entryDx=0;entryDy=0;" parent="1" source="xGJjlxiRfiB6k2hYQBMe-15" target="J9VCgambrHtC4VQbxY_9-42" edge="1">
          <mxGeometry relative="1" as="geometry">
            <Array as="points">
              <mxPoint x="-250" y="120.25" />
              <mxPoint x="-520" y="120.25" />
            </Array>
          </mxGeometry>
        </mxCell>
        <mxCell id="xGJjlxiRfiB6k2hYQBMe-15" value="&lt;p&gt;&amp;lt;&amp;lt;block&amp;gt;&amp;gt;&lt;br&gt;&lt;b&gt;Fahrzeugsteuerung&lt;/b&gt;&lt;/p&gt;" style="shape=rect;html=1;overflow=fill;whiteSpace=wrap;align=center;" parent="1" vertex="1">
          <mxGeometry x="-330" y="400.25" width="160" height="50" as="geometry" />
        </mxCell>
        <mxCell id="J9VCgambrHtC4VQbxY_9-10" style="edgeStyle=orthogonalEdgeStyle;rounded=0;orthogonalLoop=1;jettySize=auto;html=1;exitX=1;exitY=0.5;exitDx=0;exitDy=0;entryX=1;entryY=0.5;entryDx=0;entryDy=0;endSize=15;endArrow=open;endFill=0;" parent="1" source="xGJjlxiRfiB6k2hYQBMe-16" target="xGJjlxiRfiB6k2hYQBMe-3" edge="1">
          <mxGeometry relative="1" as="geometry">
            <mxPoint x="70" y="356.25" as="sourcePoint" />
            <mxPoint x="-939.9999999999998" y="791.75" as="targetPoint" />
            <Array as="points">
              <mxPoint x="460" y="425.25" />
              <mxPoint x="460" y="650.25" />
              <mxPoint x="-960" y="650.25" />
              <mxPoint x="-960" y="585.25" />
            </Array>
          </mxGeometry>
        </mxCell>
        <mxCell id="J9VCgambrHtC4VQbxY_9-48" style="edgeStyle=orthogonalEdgeStyle;rounded=0;orthogonalLoop=1;jettySize=auto;html=1;entryX=0.5;entryY=1;entryDx=0;entryDy=0;endArrow=none;endFill=0;" parent="1" target="J9VCgambrHtC4VQbxY_9-42" edge="1">
          <mxGeometry relative="1" as="geometry">
            <mxPoint x="120" y="400.25" as="sourcePoint" />
            <Array as="points">
              <mxPoint x="120" y="120.25" />
              <mxPoint x="-520" y="120.25" />
            </Array>
          </mxGeometry>
        </mxCell>
        <mxCell id="xGJjlxiRfiB6k2hYQBMe-16" value="&lt;p&gt;&amp;lt;&amp;lt;block&amp;gt;&amp;gt;&lt;br&gt;&lt;b&gt;Aktorik&lt;/b&gt;&lt;/p&gt;" style="shape=rect;html=1;overflow=fill;whiteSpace=wrap;align=center;" parent="1" vertex="1">
          <mxGeometry x="40" y="400.25" width="160" height="50" as="geometry" />
        </mxCell>
        <mxCell id="J9VCgambrHtC4VQbxY_9-51" style="edgeStyle=orthogonalEdgeStyle;rounded=0;orthogonalLoop=1;jettySize=auto;html=1;exitX=0.5;exitY=0;exitDx=0;exitDy=0;entryX=0.5;entryY=1;entryDx=0;entryDy=0;endArrow=none;endFill=0;" parent="1" source="xGJjlxiRfiB6k2hYQBMe-28" target="J9VCgambrHtC4VQbxY_9-42" edge="1">
          <mxGeometry relative="1" as="geometry">
            <Array as="points">
              <mxPoint x="-790" y="120.25" />
              <mxPoint x="-520" y="120.25" />
            </Array>
          </mxGeometry>
        </mxCell>
        <mxCell id="J9VCgambrHtC4VQbxY_9-52" style="edgeStyle=orthogonalEdgeStyle;rounded=0;orthogonalLoop=1;jettySize=auto;html=1;exitX=1;exitY=0.5;exitDx=0;exitDy=0;entryX=0.25;entryY=0;entryDx=0;entryDy=0;endSize=15;endArrow=block;endFill=1;" parent="1" source="xGJjlxiRfiB6k2hYQBMe-28" target="xGJjlxiRfiB6k2hYQBMe-13" edge="1">
          <mxGeometry relative="1" as="geometry" />
        </mxCell>
        <mxCell id="xGJjlxiRfiB6k2hYQBMe-28" value="&lt;p&gt;&amp;lt;&amp;lt;interface&amp;gt;&amp;gt;&lt;br&gt;&lt;b&gt;Zielbestimmung&lt;/b&gt;&lt;/p&gt;" style="shape=rect;html=1;overflow=fill;whiteSpace=wrap;align=center;" parent="1" vertex="1">
          <mxGeometry x="-870" y="200.25" width="160" height="50" as="geometry" />
        </mxCell>
        <mxCell id="J9VCgambrHtC4VQbxY_9-27" style="edgeStyle=orthogonalEdgeStyle;rounded=0;orthogonalLoop=1;jettySize=auto;html=1;exitX=0.5;exitY=0;exitDx=0;exitDy=0;entryX=0.5;entryY=1;entryDx=0;entryDy=0;endArrow=open;endFill=0;endSize=15;" parent="1" source="J9VCgambrHtC4VQbxY_9-3" target="xGJjlxiRfiB6k2hYQBMe-13" edge="1">
          <mxGeometry relative="1" as="geometry" />
        </mxCell>
        <mxCell id="J9VCgambrHtC4VQbxY_9-28" value="informiert &amp;gt;" style="edgeLabel;html=1;align=center;verticalAlign=middle;resizable=0;points=[];rotation=-90;" parent="J9VCgambrHtC4VQbxY_9-27" vertex="1" connectable="0">
          <mxGeometry x="0.0091" y="3" relative="1" as="geometry">
            <mxPoint x="-8" y="11" as="offset" />
          </mxGeometry>
        </mxCell>
        <mxCell id="J9VCgambrHtC4VQbxY_9-3" value="&amp;lt;&amp;lt;block&amp;gt;&amp;gt;&lt;br&gt;&lt;b&gt;Notbremsung&lt;/b&gt;" style="rounded=0;whiteSpace=wrap;html=1;" parent="1" vertex="1">
          <mxGeometry x="-600" y="560.25" width="160" height="50" as="geometry" />
        </mxCell>
        <mxCell id="J9VCgambrHtC4VQbxY_9-4" style="edgeStyle=orthogonalEdgeStyle;rounded=0;orthogonalLoop=1;jettySize=auto;html=1;exitX=0.5;exitY=1;exitDx=0;exitDy=0;entryX=0;entryY=0.5;entryDx=0;entryDy=0;fontSize=12;startSize=8;endSize=15;endArrow=open;endFill=0;" parent="1" source="xGJjlxiRfiB6k2hYQBMe-10" target="J9VCgambrHtC4VQbxY_9-3" edge="1">
          <mxGeometry relative="1" as="geometry">
            <mxPoint x="-970" y="480.25" as="sourcePoint" />
          </mxGeometry>
        </mxCell>
        <mxCell id="J9VCgambrHtC4VQbxY_9-7" style="edgeStyle=orthogonalEdgeStyle;rounded=0;orthogonalLoop=1;jettySize=auto;html=1;endArrow=open;endFill=0;endSize=15;strokeWidth=1;exitX=1;exitY=0.5;exitDx=0;exitDy=0;entryX=0.5;entryY=1;entryDx=0;entryDy=0;" parent="1" source="J9VCgambrHtC4VQbxY_9-3" target="xGJjlxiRfiB6k2hYQBMe-15" edge="1">
          <mxGeometry relative="1" as="geometry">
            <Array as="points">
              <mxPoint x="-440" y="591.25" />
              <mxPoint x="-250" y="591.25" />
            </Array>
            <mxPoint x="-190" y="477.25" as="targetPoint" />
          </mxGeometry>
        </mxCell>
        <mxCell id="J9VCgambrHtC4VQbxY_9-8" value="steuert an &amp;gt;" style="edgeLabel;html=1;align=center;verticalAlign=middle;resizable=0;points=[];rotation=-90;" parent="J9VCgambrHtC4VQbxY_9-7" vertex="1" connectable="0">
          <mxGeometry x="0.1564" y="4" relative="1" as="geometry">
            <mxPoint x="-7" y="-41" as="offset" />
          </mxGeometry>
        </mxCell>
        <mxCell id="J9VCgambrHtC4VQbxY_9-9" style="rounded=0;orthogonalLoop=1;jettySize=auto;html=1;fontSize=12;endArrow=diamondThin;endFill=1;endSize=20;exitX=0.5;exitY=0;exitDx=0;exitDy=0;entryX=0.5;entryY=1;entryDx=0;entryDy=0;edgeStyle=orthogonalEdgeStyle;" parent="1" source="xGJjlxiRfiB6k2hYQBMe-4" edge="1">
          <mxGeometry relative="1" as="geometry">
            <mxPoint x="-1290.1599999999999" y="450.25" as="targetPoint" />
            <mxPoint x="-1290.1599999999999" y="538.25" as="sourcePoint" />
            <Array as="points">
              <mxPoint x="-1390" y="520.25" />
              <mxPoint x="-1290" y="520.25" />
            </Array>
          </mxGeometry>
        </mxCell>
        <mxCell id="J9VCgambrHtC4VQbxY_9-29" style="edgeStyle=orthogonalEdgeStyle;rounded=0;orthogonalLoop=1;jettySize=auto;html=1;exitX=1;exitY=0.5;exitDx=0;exitDy=0;entryX=-0.002;entryY=0.795;entryDx=0;entryDy=0;entryPerimeter=0;endSize=15;endArrow=block;endFill=1;" parent="1" source="xGJjlxiRfiB6k2hYQBMe-10" target="xGJjlxiRfiB6k2hYQBMe-13" edge="1">
          <mxGeometry relative="1" as="geometry" />
        </mxCell>
        <mxCell id="J9VCgambrHtC4VQbxY_9-31" value="&lt;p&gt;&amp;lt;&amp;lt;block&amp;gt;&amp;gt;&lt;br&gt;&lt;b&gt;Motor&lt;/b&gt;&lt;br&gt;&lt;/p&gt;" style="shape=rect;html=1;overflow=fill;whiteSpace=wrap;align=center;" parent="1" vertex="1">
          <mxGeometry x="-170" y="560.25" width="160" height="50" as="geometry" />
        </mxCell>
        <mxCell id="J9VCgambrHtC4VQbxY_9-39" style="edgeStyle=orthogonalEdgeStyle;rounded=0;orthogonalLoop=1;jettySize=auto;html=1;exitX=0.5;exitY=0;exitDx=0;exitDy=0;entryX=0.5;entryY=1;entryDx=0;entryDy=0;endArrow=none;endFill=0;" parent="1" source="J9VCgambrHtC4VQbxY_9-32" target="xGJjlxiRfiB6k2hYQBMe-16" edge="1">
          <mxGeometry relative="1" as="geometry" />
        </mxCell>
        <mxCell id="J9VCgambrHtC4VQbxY_9-32" value="&lt;p&gt;&amp;lt;&amp;lt;block&amp;gt;&amp;gt;&lt;br&gt;&lt;b&gt;Bremsen&lt;/b&gt;&lt;br&gt;&lt;/p&gt;" style="shape=rect;html=1;overflow=fill;whiteSpace=wrap;align=center;" parent="1" vertex="1">
          <mxGeometry x="40" y="560.25" width="160" height="50" as="geometry" />
        </mxCell>
        <mxCell id="J9VCgambrHtC4VQbxY_9-33" value="&amp;lt;&amp;lt;block&amp;gt;&amp;gt;&lt;br&gt;&lt;b&gt;Lenkung&lt;/b&gt;" style="rounded=0;whiteSpace=wrap;html=1;" parent="1" vertex="1">
          <mxGeometry x="250" y="560.25" width="160" height="50" as="geometry" />
        </mxCell>
        <mxCell id="J9VCgambrHtC4VQbxY_9-34" style="edgeStyle=orthogonalEdgeStyle;rounded=0;orthogonalLoop=1;jettySize=auto;html=1;fontSize=12;endArrow=diamondThin;endFill=1;endSize=20;exitX=0.5;exitY=0;exitDx=0;exitDy=0;entryX=0.5;entryY=1;entryDx=0;entryDy=0;" parent="1" source="J9VCgambrHtC4VQbxY_9-33" edge="1">
          <mxGeometry relative="1" as="geometry">
            <mxPoint x="120" y="450.25" as="targetPoint" />
            <Array as="points">
              <mxPoint x="330" y="520.25" />
              <mxPoint x="120" y="520.25" />
            </Array>
            <mxPoint x="300" y="648.25" as="sourcePoint" />
          </mxGeometry>
        </mxCell>
        <mxCell id="J9VCgambrHtC4VQbxY_9-35" value="1" style="edgeLabel;html=1;align=center;verticalAlign=middle;resizable=0;points=[];fontSize=12;" parent="J9VCgambrHtC4VQbxY_9-34" vertex="1" connectable="0">
          <mxGeometry x="-0.6868" y="-2" relative="1" as="geometry">
            <mxPoint y="32" as="offset" />
          </mxGeometry>
        </mxCell>
        <mxCell id="J9VCgambrHtC4VQbxY_9-36" value="1" style="edgeLabel;html=1;align=center;verticalAlign=middle;resizable=0;points=[];fontSize=12;" parent="J9VCgambrHtC4VQbxY_9-34" vertex="1" connectable="0">
          <mxGeometry x="-0.6868" y="-2" relative="1" as="geometry">
            <mxPoint x="-210" y="32" as="offset" />
          </mxGeometry>
        </mxCell>
        <mxCell id="J9VCgambrHtC4VQbxY_9-37" value="1" style="edgeLabel;html=1;align=center;verticalAlign=middle;resizable=0;points=[];fontSize=12;" parent="J9VCgambrHtC4VQbxY_9-34" vertex="1" connectable="0">
          <mxGeometry x="-0.6868" y="-2" relative="1" as="geometry">
            <mxPoint x="-420" y="32" as="offset" />
          </mxGeometry>
        </mxCell>
        <mxCell id="J9VCgambrHtC4VQbxY_9-53" value="1" style="edgeLabel;html=1;align=center;verticalAlign=middle;resizable=0;points=[];fontSize=12;" parent="J9VCgambrHtC4VQbxY_9-34" vertex="1" connectable="0">
          <mxGeometry x="-0.6868" y="-2" relative="1" as="geometry">
            <mxPoint x="-579" y="-128" as="offset" />
          </mxGeometry>
        </mxCell>
        <mxCell id="J9VCgambrHtC4VQbxY_9-54" value="1" style="edgeLabel;html=1;align=center;verticalAlign=middle;resizable=0;points=[];fontSize=12;" parent="J9VCgambrHtC4VQbxY_9-34" vertex="1" connectable="0">
          <mxGeometry x="-0.6868" y="-2" relative="1" as="geometry">
            <mxPoint x="-1119" y="-328" as="offset" />
          </mxGeometry>
        </mxCell>
        <mxCell id="J9VCgambrHtC4VQbxY_9-55" value="1" style="edgeLabel;html=1;align=center;verticalAlign=middle;resizable=0;points=[];fontSize=12;" parent="J9VCgambrHtC4VQbxY_9-34" vertex="1" connectable="0">
          <mxGeometry x="-0.6868" y="-2" relative="1" as="geometry">
            <mxPoint x="-809" y="-198" as="offset" />
          </mxGeometry>
        </mxCell>
        <mxCell id="J9VCgambrHtC4VQbxY_9-38" style="edgeStyle=orthogonalEdgeStyle;rounded=0;orthogonalLoop=1;jettySize=auto;html=1;exitX=0.5;exitY=0;exitDx=0;exitDy=0;entryX=0.5;entryY=1;entryDx=0;entryDy=0;fontSize=12;startSize=8;endSize=15;endArrow=none;endFill=0;" parent="1" source="J9VCgambrHtC4VQbxY_9-31" edge="1">
          <mxGeometry relative="1" as="geometry">
            <Array as="points">
              <mxPoint x="-90" y="520.25" />
              <mxPoint x="120" y="520.25" />
            </Array>
            <mxPoint x="120" y="450.25" as="targetPoint" />
          </mxGeometry>
        </mxCell>
        <mxCell id="LFQn_cGnjPwSd7bNtoK0-9" value="&lt;b&gt;bdd&lt;/b&gt; [package] Autonomes Fahren [Autonomes Fahrzeug]" style="shape=umlFrame;whiteSpace=wrap;html=1;width=330;height=30;" parent="1" vertex="1">
          <mxGeometry x="-1690" y="10" width="2190" height="760" as="geometry" />
        </mxCell>
        <mxCell id="J9VCgambrHtC4VQbxY_9-42" value="&lt;p&gt;&amp;lt;&amp;lt;block&amp;gt;&amp;gt;&lt;br&gt;&lt;b&gt;Fahrzeug&lt;/b&gt;&lt;/p&gt;" style="shape=rect;html=1;overflow=fill;whiteSpace=wrap;align=center;" parent="1" vertex="1">
          <mxGeometry x="-600" y="30.25" width="160" height="50" as="geometry" />
        </mxCell>
        <mxCell id="J9VCgambrHtC4VQbxY_9-43" style="rounded=0;orthogonalLoop=1;jettySize=auto;html=1;fontSize=12;endArrow=diamondThin;endFill=1;endSize=20;exitX=0.5;exitY=0;exitDx=0;exitDy=0;entryX=0.5;entryY=1;entryDx=0;entryDy=0;edgeStyle=orthogonalEdgeStyle;" parent="1" source="xGJjlxiRfiB6k2hYQBMe-6" target="J9VCgambrHtC4VQbxY_9-42" edge="1">
          <mxGeometry relative="1" as="geometry">
            <mxPoint x="-470.08" y="120.25" as="targetPoint" />
            <mxPoint x="-569.9200000000001" y="230.25" as="sourcePoint" />
            <Array as="points">
              <mxPoint x="-1290" y="120.25" />
              <mxPoint x="-520" y="120.25" />
            </Array>
          </mxGeometry>
        </mxCell>
        <mxCell id="npD7T2ZgBS6S0njRWlKZ-5" style="edgeStyle=orthogonalEdgeStyle;rounded=0;orthogonalLoop=1;jettySize=auto;html=1;exitX=0.5;exitY=0;exitDx=0;exitDy=0;endArrow=none;endFill=0;" edge="1" parent="1" source="npD7T2ZgBS6S0njRWlKZ-1">
          <mxGeometry relative="1" as="geometry">
            <mxPoint x="-1390" y="610.25" as="targetPoint" />
            <Array as="points">
              <mxPoint x="-1190" y="640.25" />
              <mxPoint x="-1389" y="640.25" />
            </Array>
          </mxGeometry>
        </mxCell>
        <mxCell id="npD7T2ZgBS6S0njRWlKZ-1" value="&lt;p&gt;&amp;lt;&amp;lt;block&amp;gt;&amp;gt;&lt;br&gt;&lt;b&gt;Radar&lt;/b&gt;&lt;/p&gt;" style="shape=rect;html=1;overflow=fill;whiteSpace=wrap;align=center;" vertex="1" parent="1">
          <mxGeometry x="-1270" y="700.25" width="160" height="50" as="geometry" />
        </mxCell>
        <mxCell id="npD7T2ZgBS6S0njRWlKZ-4" style="edgeStyle=orthogonalEdgeStyle;rounded=0;orthogonalLoop=1;jettySize=auto;html=1;exitX=0.5;exitY=0;exitDx=0;exitDy=0;entryX=0.5;entryY=1;entryDx=0;entryDy=0;endArrow=none;endFill=0;" edge="1" parent="1" source="npD7T2ZgBS6S0njRWlKZ-2" target="xGJjlxiRfiB6k2hYQBMe-4">
          <mxGeometry relative="1" as="geometry">
            <Array as="points">
              <mxPoint x="-1590" y="640.25" />
              <mxPoint x="-1390" y="640.25" />
            </Array>
          </mxGeometry>
        </mxCell>
        <mxCell id="npD7T2ZgBS6S0njRWlKZ-2" value="&lt;p&gt;&amp;lt;&amp;lt;block&amp;gt;&amp;gt;&lt;br&gt;&lt;b&gt;Kamera&lt;/b&gt;&lt;/p&gt;" style="shape=rect;html=1;overflow=fill;whiteSpace=wrap;align=center;" vertex="1" parent="1">
          <mxGeometry x="-1670" y="700.25" width="160" height="50" as="geometry" />
        </mxCell>
      </root>
    </mxGraphModel>
  </diagram>
</mxfile>
